<?xml version="1.0" encoding="UTF-8"?>
<svg width="20px" height="20px" viewBox="0 0 20 20" version="1.1" xmlns="http://www.w3.org/2000/svg" xmlns:xlink="http://www.w3.org/1999/xlink">
    <!-- Generator: Sketch 58 (84663) - https://sketch.com -->
    <title>Google</title>
    <desc>Created with Sketch.</desc>
    <g id="Account-Access" stroke="none" stroke-width="1" fill="none" fill-rule="evenodd">
        <g id="AOL_SocialLogin" transform="translate(-54.000000, -514.000000)" fill-rule="nonzero">
            <g id="Google" transform="translate(54.000000, 514.000000)">
                <path d="M6.71603956,0.545920922 C4.28708514,1.37702012 2.21738005,3.19471449 1.06456503,5.49498258 C0.662420261,6.28854827 0.372876025,7.13037132 0.195932325,8.00436596 C-0.243745959,10.1705858 0.0618840676,12.4815778 1.0592031,14.4547681 C1.70799667,15.7416314 2.64097254,16.8890845 3.7669779,17.7845268 C4.83400203,18.6317118 6.07260793,19.2644196 7.39164278,19.6129451 C9.05384117,20.0579853 10.8232782,20.0472614 12.4962004,19.6665644 C14.0082648,19.3180389 15.4399002,18.5941783 16.5819913,17.54324 C17.7884256,16.4333204 18.6516964,14.9748753 19.1074605,13.4038298 C19.60612,11.693374 19.6704632,9.86495577 19.3594712,8.10624264 C16.2334658,8.10624264 13.1020985,8.10624264 9.97609318,8.10624264 C9.97609318,9.40382977 9.97609318,10.7014169 9.97609318,11.999004 C11.7884256,11.999004 13.6007581,11.999004 15.4130905,11.999004 C15.2039752,13.2429719 14.4640288,14.3797011 13.4184524,15.082114 C12.758935,15.5271542 12.0029028,15.8113365 11.220061,15.9507467 C10.4372192,16.0847949 9.62220578,16.1008807 8.83936396,15.9453847 C8.04043635,15.7845268 7.28440417,15.4520871 6.61952482,14.9855992 C5.55786262,14.2402909 4.74821115,13.151819 4.33534251,11.923937 C3.91175002,10.6746072 3.90638809,9.2858673 4.33534251,8.04189947 C4.63561061,7.16254291 5.1289082,6.35289143 5.78306369,5.68801207 C6.58735324,4.86227481 7.63292964,4.27246248 8.76429694,4.03117561 C9.72944439,3.82742226 10.7482111,3.86495577 11.6919109,4.14913808 C12.4962004,4.39042494 13.2361468,4.83546516 13.8420449,5.41455363 C14.453305,4.80329358 15.064565,4.19203352 15.6758251,3.58077347 C15.9975409,3.25369572 16.3353425,2.93734183 16.6463345,2.59954022 C15.7187205,1.74163138 14.6248867,1.04994237 13.4345382,0.610264085 C11.2897661,-0.183301598 8.87689747,-0.199387389 6.71603956,0.545920922 Z" id="Path" fill="#FFFFFF"></path>
                <path d="M6.71603956,0.545920922 C8.87153554,-0.199387389 11.2897661,-0.183301598 13.4345382,0.604902155 C14.6248867,1.04458044 15.7133586,1.73090752 16.6463345,2.59417829 C16.3353425,2.9319799 15.9975409,3.24833379 15.6758251,3.57541154 C15.064565,4.18667159 14.453305,4.79793165 13.8420449,5.4091917 C13.2361468,4.83010323 12.4962004,4.39042494 11.6919109,4.14377615 C10.7482111,3.85959384 9.72944439,3.8166984 8.76429694,4.02581368 C7.63829157,4.26710055 6.59271517,4.85691288 5.78306369,5.68265014 C5.1289082,6.34216757 4.63561061,7.15718098 4.33534251,8.03653754 C3.24687066,7.18935256 2.15839881,6.3475295 1.06456503,5.50034451 C2.21738005,3.19471449 4.28708514,1.37702012 6.71603956,0.545920922 Z" id="Path" fill="#EA4335"></path>
                <path d="M0.201294255,7.99900403 C0.378237955,7.13037132 0.667782191,6.28318634 1.06992696,5.48962065 C2.15839881,6.33680564 3.24687066,7.1786287 4.34070444,8.02581368 C3.91175002,9.27514344 3.91175002,10.6638834 4.34070444,11.9078512 C3.25223259,12.7550362 2.16376074,13.6022212 1.07528889,14.4440442 C0.0672459979,12.4762158 -0.238384029,10.1652239 0.201294255,7.99900403 Z" id="Path" fill="#FBBC05"></path>
                <path d="M9.97609318,8.10088071 C13.1020985,8.10088071 16.2334658,8.10088071 19.3594712,8.10088071 C19.6704632,9.85423191 19.6007581,11.6826501 19.1074605,13.3984678 C18.6516964,14.9695134 17.7884256,16.4279585 16.5819913,17.537878 C15.525691,16.7175027 14.4693908,15.8971274 13.4130905,15.076752 C14.4586669,14.3743392 15.1986133,13.2376099 15.4077286,11.9936421 C13.5953961,11.9936421 11.7830637,11.9936421 9.97073125,11.9936421 C9.97609318,10.696055 9.97609318,9.39846784 9.97609318,8.10088071 Z" id="Path" fill="#4285F4"></path>
                <path d="M1.06456503,14.4494062 C2.15303688,13.6075831 3.24150873,12.7603981 4.32998058,11.9132131 C4.74821115,13.1410952 5.55250069,14.229567 6.61416289,14.9748753 C7.27904224,15.4413633 8.04043635,15.773803 8.83400203,15.9346609 C9.61684385,16.0955188 10.4264953,16.0740711 11.2146991,15.9400228 C11.9975409,15.8006126 12.7535731,15.5164303 13.4130905,15.0713901 C14.4693908,15.8917654 15.525691,16.7121408 16.5819913,17.5325161 C15.4399002,18.5888164 14.0082648,19.307315 12.4962004,19.6558405 C10.8232782,20.0365375 9.05384117,20.0472614 7.39164278,19.6022212 C6.07260793,19.2536957 4.83400203,18.6263499 3.7669779,17.773803 C2.64633447,16.8837225 1.7133586,15.7362694 1.06456503,14.4494062 Z" id="Path" fill="#34A853"></path>
            </g>
        </g>
    </g>
</svg>